<mxfile host="app.diagrams.net" modified="2024-05-08T22:40:36.422Z" agent="Mozilla/5.0 (Windows NT 10.0; Win64; x64) AppleWebKit/537.36 (KHTML, like Gecko) Chrome/124.0.0.0 Safari/537.36" etag="PepSsu_6ETSJ-gf2Y30q" version="24.3.1" type="device">
  <diagram id="C5RBs43oDa-KdzZeNtuy" name="Page-1">
    <mxGraphModel dx="1050" dy="557" grid="1" gridSize="10" guides="1" tooltips="1" connect="1" arrows="1" fold="1" page="1" pageScale="1" pageWidth="827" pageHeight="1169" math="0" shadow="0">
      <root>
        <mxCell id="WIyWlLk6GJQsqaUBKTNV-0" />
        <mxCell id="WIyWlLk6GJQsqaUBKTNV-1" parent="WIyWlLk6GJQsqaUBKTNV-0" />
        <mxCell id="Cwf09dZYR6qUOPFKjExY-2" style="edgeStyle=orthogonalEdgeStyle;rounded=0;orthogonalLoop=1;jettySize=auto;html=1;exitX=0.5;exitY=1;exitDx=0;exitDy=0;entryX=0.5;entryY=0;entryDx=0;entryDy=0;" parent="WIyWlLk6GJQsqaUBKTNV-1" source="Cwf09dZYR6qUOPFKjExY-0" target="Cwf09dZYR6qUOPFKjExY-1" edge="1">
          <mxGeometry relative="1" as="geometry" />
        </mxCell>
        <mxCell id="Cwf09dZYR6qUOPFKjExY-0" value="Inicio" style="ellipse;whiteSpace=wrap;html=1;" parent="WIyWlLk6GJQsqaUBKTNV-1" vertex="1">
          <mxGeometry x="340" y="10" width="90" height="50" as="geometry" />
        </mxCell>
        <mxCell id="Cwf09dZYR6qUOPFKjExY-6" style="edgeStyle=orthogonalEdgeStyle;rounded=0;orthogonalLoop=1;jettySize=auto;html=1;exitX=1;exitY=0.5;exitDx=0;exitDy=0;" parent="WIyWlLk6GJQsqaUBKTNV-1" source="Cwf09dZYR6qUOPFKjExY-1" edge="1">
          <mxGeometry relative="1" as="geometry">
            <mxPoint x="510" y="160" as="targetPoint" />
          </mxGeometry>
        </mxCell>
        <mxCell id="Cwf09dZYR6qUOPFKjExY-9" style="edgeStyle=orthogonalEdgeStyle;rounded=0;orthogonalLoop=1;jettySize=auto;html=1;exitX=0.5;exitY=1;exitDx=0;exitDy=0;entryX=0.5;entryY=0;entryDx=0;entryDy=0;" parent="WIyWlLk6GJQsqaUBKTNV-1" source="Cwf09dZYR6qUOPFKjExY-1" target="Cwf09dZYR6qUOPFKjExY-8" edge="1">
          <mxGeometry relative="1" as="geometry" />
        </mxCell>
        <mxCell id="Cwf09dZYR6qUOPFKjExY-1" value="character &amp;gt;= &#39;A&#39; &amp;amp;&amp;amp; character &amp;lt;= &#39;Z&#39;" style="rhombus;whiteSpace=wrap;html=1;" parent="WIyWlLk6GJQsqaUBKTNV-1" vertex="1">
          <mxGeometry x="316" y="100" width="138" height="120" as="geometry" />
        </mxCell>
        <mxCell id="Cwf09dZYR6qUOPFKjExY-20" style="edgeStyle=orthogonalEdgeStyle;rounded=0;orthogonalLoop=1;jettySize=auto;html=1;exitX=0.5;exitY=1;exitDx=0;exitDy=0;" parent="WIyWlLk6GJQsqaUBKTNV-1" target="Cwf09dZYR6qUOPFKjExY-19" edge="1">
          <mxGeometry relative="1" as="geometry">
            <mxPoint x="575" y="190" as="sourcePoint" />
          </mxGeometry>
        </mxCell>
        <mxCell id="Cwf09dZYR6qUOPFKjExY-7" value="Si" style="text;html=1;align=center;verticalAlign=middle;resizable=0;points=[];autosize=1;strokeColor=none;fillColor=none;" parent="WIyWlLk6GJQsqaUBKTNV-1" vertex="1">
          <mxGeometry x="465" y="138" width="30" height="30" as="geometry" />
        </mxCell>
        <mxCell id="Cwf09dZYR6qUOPFKjExY-16" style="edgeStyle=orthogonalEdgeStyle;rounded=0;orthogonalLoop=1;jettySize=auto;html=1;exitX=0.5;exitY=1;exitDx=0;exitDy=0;entryX=0.5;entryY=0;entryDx=0;entryDy=0;" parent="WIyWlLk6GJQsqaUBKTNV-1" source="Cwf09dZYR6qUOPFKjExY-8" edge="1">
          <mxGeometry relative="1" as="geometry">
            <mxPoint x="385" y="440" as="targetPoint" />
          </mxGeometry>
        </mxCell>
        <mxCell id="Cwf09dZYR6qUOPFKjExY-18" style="edgeStyle=orthogonalEdgeStyle;rounded=0;orthogonalLoop=1;jettySize=auto;html=1;exitX=0;exitY=0.5;exitDx=0;exitDy=0;" parent="WIyWlLk6GJQsqaUBKTNV-1" source="Cwf09dZYR6qUOPFKjExY-8" edge="1">
          <mxGeometry relative="1" as="geometry">
            <mxPoint x="227.5" y="435" as="targetPoint" />
          </mxGeometry>
        </mxCell>
        <mxCell id="Cwf09dZYR6qUOPFKjExY-8" value="character &amp;gt;= &#39;a&#39; &amp;amp;&amp;amp; character &amp;lt;= &#39;z&#39;" style="rhombus;whiteSpace=wrap;html=1;" parent="WIyWlLk6GJQsqaUBKTNV-1" vertex="1">
          <mxGeometry x="320" y="260" width="130" height="130" as="geometry" />
        </mxCell>
        <mxCell id="Cwf09dZYR6qUOPFKjExY-13" value="Si" style="text;html=1;align=center;verticalAlign=middle;resizable=0;points=[];autosize=1;strokeColor=none;fillColor=none;" parent="WIyWlLk6GJQsqaUBKTNV-1" vertex="1">
          <mxGeometry x="280" y="300" width="30" height="30" as="geometry" />
        </mxCell>
        <mxCell id="Cwf09dZYR6qUOPFKjExY-14" value="No" style="text;html=1;align=center;verticalAlign=middle;resizable=0;points=[];autosize=1;strokeColor=none;fillColor=none;" parent="WIyWlLk6GJQsqaUBKTNV-1" vertex="1">
          <mxGeometry x="380" y="218" width="40" height="30" as="geometry" />
        </mxCell>
        <mxCell id="Cwf09dZYR6qUOPFKjExY-21" style="edgeStyle=orthogonalEdgeStyle;rounded=0;orthogonalLoop=1;jettySize=auto;html=1;exitX=1;exitY=0.5;exitDx=0;exitDy=0;entryX=0;entryY=0.5;entryDx=0;entryDy=0;" parent="WIyWlLk6GJQsqaUBKTNV-1" target="Cwf09dZYR6qUOPFKjExY-19" edge="1">
          <mxGeometry relative="1" as="geometry">
            <mxPoint x="445" y="470" as="sourcePoint" />
          </mxGeometry>
        </mxCell>
        <mxCell id="Cwf09dZYR6qUOPFKjExY-17" value="No" style="text;html=1;align=center;verticalAlign=middle;resizable=0;points=[];autosize=1;strokeColor=none;fillColor=none;" parent="WIyWlLk6GJQsqaUBKTNV-1" vertex="1">
          <mxGeometry x="340" y="398" width="40" height="30" as="geometry" />
        </mxCell>
        <mxCell id="Cwf09dZYR6qUOPFKjExY-19" value="Fin" style="ellipse;whiteSpace=wrap;html=1;" parent="WIyWlLk6GJQsqaUBKTNV-1" vertex="1">
          <mxGeometry x="515" y="300" width="120" height="80" as="geometry" />
        </mxCell>
        <mxCell id="-R3MU1bCAfTReLoP1CoG-0" value="&amp;nbsp;mostrar &quot;upper-case alphabet&quot;" style="shape=parallelogram;perimeter=parallelogramPerimeter;whiteSpace=wrap;html=1;fixedSize=1;" vertex="1" parent="WIyWlLk6GJQsqaUBKTNV-1">
          <mxGeometry x="500" y="130" width="140" height="60" as="geometry" />
        </mxCell>
        <mxCell id="-R3MU1bCAfTReLoP1CoG-1" value="Mostrar&amp;nbsp;&quot;not an alphabet&quot;" style="shape=parallelogram;perimeter=parallelogramPerimeter;whiteSpace=wrap;html=1;fixedSize=1;" vertex="1" parent="WIyWlLk6GJQsqaUBKTNV-1">
          <mxGeometry x="340" y="440" width="120" height="60" as="geometry" />
        </mxCell>
        <mxCell id="-R3MU1bCAfTReLoP1CoG-3" style="edgeStyle=orthogonalEdgeStyle;rounded=0;orthogonalLoop=1;jettySize=auto;html=1;exitX=0.5;exitY=1;exitDx=0;exitDy=0;entryX=0.5;entryY=1;entryDx=0;entryDy=0;" edge="1" parent="WIyWlLk6GJQsqaUBKTNV-1" source="-R3MU1bCAfTReLoP1CoG-2" target="Cwf09dZYR6qUOPFKjExY-19">
          <mxGeometry relative="1" as="geometry" />
        </mxCell>
        <mxCell id="-R3MU1bCAfTReLoP1CoG-2" value="Mostrar&amp;nbsp;&quot;lower-case alphabet&quot;" style="shape=parallelogram;perimeter=parallelogramPerimeter;whiteSpace=wrap;html=1;fixedSize=1;" vertex="1" parent="WIyWlLk6GJQsqaUBKTNV-1">
          <mxGeometry x="150" y="440" width="150" height="50" as="geometry" />
        </mxCell>
      </root>
    </mxGraphModel>
  </diagram>
</mxfile>
